<svg width="208" height="79" viewBox="0 0 208 79" fill="none" xmlns="http://www.w3.org/2000/svg">
<path d="M61.834 55.2103C60.1706 56.0592 45.7216 58.9658 34.7443 55.9897C26.5436 53.7601 15.6056 47.3935 11.9693 45.1962C11.3041 44.7943 11.1557 43.9079 11.6371 43.2978L25.1271 26.2034C25.6992 25.4785 26.8282 25.5479 27.3207 26.329C29.5053 29.7937 35.0355 38.009 41.6227 43.5984C50.459 51.1008 57.5985 53.2067 61.8831 53.6942C62.4128 53.7545 63.4973 54.3615 61.834 55.2103Z" fill="#00D6BC"/>
<path d="M57.9395 49.256C56.5716 48.9552 46.817 43.7552 41.8761 36.8015C38.3191 31.7878 35.1204 23.3322 33.9469 20.0413C33.6859 19.3093 34.1334 18.5289 34.8928 18.3635L50.0257 15.0679C50.928 14.8714 51.7573 15.6436 51.6481 16.5605C51.2565 19.8511 50.6674 26.8361 51.7639 32.9006C53.3083 41.4562 56.4406 46.0774 58.6903 48.4011C58.9684 48.6884 59.3075 49.5567 57.9395 49.256Z" fill="#00D6BC"/>
<path d="M59.4845 45.2997C58.8587 44.5629 55.6733 37.6307 55.8647 31.7465C55.9976 27.7503 57.5826 22.2079 58.3761 19.6594C58.6071 18.9174 59.4368 18.5626 60.1413 18.8907L68.8818 22.9615C69.7189 23.3513 69.9115 24.4712 69.2776 25.1427C67.589 26.9314 64.703 30.2492 62.9261 33.7352C60.1995 39.0802 59.9893 42.9274 60.2541 45.1439C60.2868 45.4179 60.1103 46.0365 59.4845 45.2997Z" fill="#00D6BC"/>
<path d="M63.1075 43.1237C63.0813 42.5645 64.0739 38.259 66.2438 35.6289C67.6443 33.9339 70.1384 32.0631 71.4701 31.1186C71.9455 30.7814 72.5999 30.9512 72.8679 31.4688L75.1694 35.9153C75.4877 36.5304 75.0869 37.2851 74.4041 37.4009C72.9596 37.6458 70.6758 38.141 68.7776 39.0394C65.6362 40.5252 64.1784 42.2147 63.5155 43.3246C63.4336 43.4618 63.1337 43.683 63.1075 43.1237Z" fill="#00D6BC"/>
<g clip-path="url(#clip0_133_13416)">
<path d="M94.0304 49.7162C92.0522 49.7162 90.283 49.2286 88.7228 48.2535C87.1904 47.2783 85.9784 45.9828 85.0869 44.3668C84.1953 42.723 83.7495 40.912 83.7495 38.9338C83.7495 36.9835 84.2232 35.2004 85.1704 33.5844C86.1456 31.9406 87.4551 30.645 89.0989 29.6978C90.7427 28.7226 92.5955 28.235 94.6573 28.235C96.719 28.235 98.5718 28.7087 100.216 29.656C101.859 30.5754 103.155 31.8431 104.102 33.4591C105.077 35.075 105.565 36.8999 105.565 38.9338V49.2147H101.637V41.5667L103.057 40.4801C103.057 42.2075 102.667 43.7678 101.887 45.1608C101.135 46.5539 100.076 47.6684 98.7111 48.5042C97.3737 49.3122 95.8135 49.7162 94.0304 49.7162ZM94.6573 45.7877C95.9389 45.7877 97.0951 45.4813 98.126 44.8683C99.1569 44.2554 99.9649 43.4334 100.55 42.4026C101.135 41.3438 101.428 40.2015 101.428 38.9756C101.428 37.7218 101.135 36.5795 100.55 35.5487C99.9649 34.5178 99.1569 33.6959 98.126 33.0829C97.0951 32.4421 95.9389 32.1217 94.6573 32.1217C93.3756 32.1217 92.2194 32.4421 91.1885 33.0829C90.1855 33.6959 89.3775 34.5178 88.7646 35.5487C88.1795 36.5795 87.8869 37.7218 87.8869 38.9756C87.8869 40.2015 88.1795 41.3438 88.7646 42.4026C89.3775 43.4334 90.1855 44.2554 91.1885 44.8683C92.2194 45.4813 93.3756 45.7877 94.6573 45.7877Z" fill="#334155"/>
<path d="M110.656 19.3333H114.793V49.2147H110.656V19.3333Z" fill="#334155"/>
<path d="M129.432 49.6744C127.37 49.6744 125.517 49.2147 123.874 48.2953C122.23 47.348 120.934 46.0663 119.987 44.4504C119.04 42.8066 118.566 40.9398 118.566 38.8502C118.566 36.8999 118.998 35.1168 119.861 33.5008C120.725 31.857 121.937 30.5615 123.497 29.6142C125.058 28.639 126.869 28.1515 128.93 28.1515C130.992 28.1515 132.761 28.6112 134.238 29.5306C135.743 30.4222 136.899 31.6481 137.707 33.2083C138.543 34.7407 138.96 36.4542 138.96 38.3487V40.0204H121.784L122.536 38.3487C122.453 39.7975 122.689 41.0931 123.247 42.2354C123.804 43.3777 124.612 44.2971 125.671 44.9937C126.729 45.6624 127.969 45.9967 129.39 45.9967C130.672 45.9967 131.828 45.7181 132.859 45.1608C133.918 44.6036 134.753 43.7678 135.366 42.6533L138.543 44.2832C137.651 46.0385 136.411 47.3758 134.823 48.2953C133.235 49.2147 131.438 49.6744 129.432 49.6744ZM122.745 37.3457H134.823C134.767 36.2591 134.475 35.2979 133.945 34.4621C133.444 33.6262 132.747 32.9854 131.856 32.5396C130.992 32.0938 130.003 31.871 128.889 31.871C127.746 31.871 126.729 32.1078 125.838 32.5814C124.974 33.0551 124.278 33.7098 123.748 34.5456C123.247 35.3815 122.912 36.3148 122.745 37.3457Z" fill="#334155"/>
<path d="M151.465 59.1194C149.263 59.1194 147.285 58.6458 145.53 57.6985C143.775 56.7512 142.423 55.3721 141.476 53.5611L144.945 51.6804C145.53 52.7949 146.38 53.6725 147.494 54.3133C148.609 54.982 149.904 55.3163 151.381 55.3163C152.83 55.3163 154.083 54.982 155.142 54.3133C156.229 53.6725 157.079 52.7531 157.692 51.555C158.304 50.3849 158.611 49.0057 158.611 47.4176V43.113L159.656 42.1518C159.656 43.3777 159.321 44.5618 158.653 45.7041C158.012 46.8186 157.065 47.738 155.811 48.4624C154.585 49.159 153.094 49.5072 151.339 49.5072C149.417 49.5072 147.661 49.0475 146.073 48.1281C144.513 47.1808 143.259 45.9131 142.312 44.325C141.393 42.709 140.933 40.8981 140.933 38.892C140.933 36.9417 141.407 35.1586 142.354 33.5426C143.329 31.9267 144.638 30.645 146.282 29.6978C147.926 28.7226 149.779 28.235 151.841 28.235C153.902 28.235 155.755 28.7087 157.399 29.656C159.043 30.5754 160.338 31.8431 161.286 33.4591C162.261 35.075 162.748 36.8999 162.748 38.9338V47.3758C162.748 49.744 162.261 51.8058 161.286 53.5611C160.311 55.3442 158.973 56.7094 157.274 57.6567C155.574 58.6318 153.638 59.1194 151.465 59.1194ZM151.799 45.6206C153.053 45.6206 154.195 45.328 155.226 44.7429C156.257 44.13 157.065 43.3081 157.65 42.2772C158.263 41.2185 158.569 40.0761 158.569 38.8502C158.569 37.5965 158.263 36.4681 157.65 35.4651C157.065 34.4342 156.257 33.6262 155.226 33.0411C154.195 32.456 153.053 32.1635 151.799 32.1635C150.545 32.1635 149.403 32.456 148.372 33.0411C147.369 33.6262 146.561 34.4342 145.948 35.4651C145.335 36.4681 145.029 37.5965 145.029 38.8502C145.029 40.0761 145.335 41.2185 145.948 42.2772C146.561 43.3081 147.369 44.13 148.372 44.7429C149.403 45.328 150.545 45.6206 151.799 45.6206Z" fill="#334155"/>
<path d="M171.141 49.2147H167.003V37.0114C167.003 35.3397 167.31 33.8491 167.923 32.5396C168.564 31.2301 169.483 30.1993 170.681 29.447C171.907 28.6947 173.411 28.3186 175.195 28.3186C175.863 28.3186 176.504 28.3883 177.117 28.5276C177.758 28.639 178.343 28.8201 178.872 29.0709V33.1665C178.371 32.86 177.827 32.6371 177.242 32.4978C176.685 32.3585 176.128 32.2889 175.571 32.2889C174.206 32.2889 173.119 32.7347 172.311 33.6262C171.531 34.4899 171.141 35.674 171.141 37.1785V49.2147Z" fill="#334155"/>
<path d="M189.254 49.7162C187.276 49.7162 185.507 49.2286 183.947 48.2535C182.414 47.2783 181.202 45.9828 180.311 44.3668C179.419 42.723 178.974 40.912 178.974 38.9338C178.974 36.9835 179.447 35.2004 180.394 33.5844C181.37 31.9406 182.679 30.645 184.323 29.6978C185.967 28.7226 187.82 28.235 189.881 28.235C191.943 28.235 193.796 28.7087 195.44 29.656C197.083 30.5754 198.379 31.8431 199.326 33.4591C200.301 35.075 200.789 36.8999 200.789 38.9338V49.2147H196.861V41.5667L198.281 40.4801C198.281 42.2075 197.891 43.7678 197.111 45.1608C196.359 46.5539 195.3 47.6684 193.935 48.5042C192.598 49.3122 191.037 49.7162 189.254 49.7162ZM189.881 45.7877C191.163 45.7877 192.319 45.4813 193.35 44.8683C194.381 44.2554 195.189 43.4334 195.774 42.4026C196.359 41.3438 196.652 40.2015 196.652 38.9756C196.652 37.7218 196.359 36.5795 195.774 35.5487C195.189 34.5178 194.381 33.6959 193.35 33.0829C192.319 32.4421 191.163 32.1217 189.881 32.1217C188.6 32.1217 187.443 32.4421 186.413 33.0829C185.41 33.6959 184.602 34.5178 183.989 35.5487C183.403 36.5795 183.111 37.7218 183.111 38.9756C183.111 40.2015 183.403 41.3438 183.989 42.4026C184.602 43.4334 185.41 44.2554 186.413 44.8683C187.443 45.4813 188.6 45.7877 189.881 45.7877Z" fill="#334155"/>
<rect x="121.816" y="36.6918" width="14.3132" height="1.52268" fill="#334155"/>
</g>
<defs>
<clipPath id="clip0_133_13416">
<rect width="127.905" height="39.8941" fill="white" transform="translate(80.0951 19.3333)"/>
</clipPath>
</defs>
</svg>
